HIERARCHY
ROOT joint_Root
{
	OFFSET 0.0 0.0 0.0
	CHANNELS 6 Xposition Yposition Zposition Zrotation Xrotation Yrotation 
	JOINT Hips
	{
		OFFSET -17.1583 93.1646 452.98
		CHANNELS 6 Xposition Yposition Zposition Zrotation Xrotation Yrotation 
		JOINT Spine
		{
			OFFSET 15.7357 0.0 0.0
			CHANNELS 6 Xposition Yposition Zposition Zrotation Xrotation Yrotation 
			JOINT Chest
			{
				OFFSET 8.98455 -0.406207 0.0
				CHANNELS 6 Xposition Yposition Zposition Zrotation Xrotation Yrotation 
				JOINT Neck
				{
					OFFSET 16.3773 0.0 0.0
					CHANNELS 6 Xposition Yposition Zposition Zrotation Xrotation Yrotation 
					JOINT Head
					{
						OFFSET 6.45672 0.0 0.0
						CHANNELS 6 Xposition Yposition Zposition Zrotation Xrotation Yrotation 
						End Site
						{
							OFFSET 0.0 0.0 0.0
						}
					}
				}
				JOINT Shoulder_L
				{
					OFFSET 12.9942 -0.242716 4.98039
					CHANNELS 6 Xposition Yposition Zposition Zrotation Xrotation Yrotation 
					JOINT UpperArm_L
					{
						OFFSET 5.34809 0.0 0.0
						CHANNELS 6 Xposition Yposition Zposition Zrotation Xrotation Yrotation 
						JOINT LowerArm_L
						{
							OFFSET 24.3286 1.87007e-05 0.0
							CHANNELS 6 Xposition Yposition Zposition Zrotation Xrotation Yrotation 
							JOINT Hand_L
							{
								OFFSET 22.2916 0.0 0.0
								CHANNELS 6 Xposition Yposition Zposition Zrotation Xrotation Yrotation 
								End Site
								{
									OFFSET 0.0 0.0 0.0
								}
							}
						}
					}
				}
				JOINT Shoulder_R
				{
					OFFSET 12.9945 -0.242716 -4.98039
					CHANNELS 6 Xposition Yposition Zposition Zrotation Xrotation Yrotation 
					JOINT UpperArm_R
					{
						OFFSET -5.34813 0.0 0.0
						CHANNELS 6 Xposition Yposition Zposition Zrotation Xrotation Yrotation 
						JOINT LowerArm_R
						{
							OFFSET -24.3289 0.000322201 0.0
							CHANNELS 6 Xposition Yposition Zposition Zrotation Xrotation Yrotation 
							JOINT Hand_R
							{
								OFFSET -22.2915 -0.000108084 0.0
								CHANNELS 6 Xposition Yposition Zposition Zrotation Xrotation Yrotation 
								End Site
								{
									OFFSET 0.0 0.0 0.0
								}
							}
						}
					}
				}
			}
		}
		JOINT UpperLeg_L
		{
			OFFSET -2.19248 -6.46944 0.0
			CHANNELS 6 Xposition Yposition Zposition Zrotation Xrotation Yrotation 
			JOINT LowerLeg_L
			{
				OFFSET 39.0811 0.0 -1.23785e-05
				CHANNELS 6 Xposition Yposition Zposition Zrotation Xrotation Yrotation 
				JOINT Foot_L
				{
					OFFSET 40.9854 0.0 -1.26872e-05
					CHANNELS 6 Xposition Yposition Zposition Zrotation Xrotation Yrotation 
					JOINT Toes_L
					{
						OFFSET 11.7543 0.0 0.0
						CHANNELS 6 Xposition Yposition Zposition Zrotation Xrotation Yrotation 
						End Site
						{
							OFFSET 0.0 0.0 0.0
						}
					}
				}
			}
		}
		JOINT UpperLeg_R
		{
			OFFSET -2.19251 6.46944 0.0
			CHANNELS 6 Xposition Yposition Zposition Zrotation Xrotation Yrotation 
			JOINT LowerLeg_R
			{
				OFFSET -39.0811 -0.00228153 -0.0401928
				CHANNELS 6 Xposition Yposition Zposition Zrotation Xrotation Yrotation 
				JOINT Foot_R
				{
					OFFSET -40.9854 0.0 0.0
					CHANNELS 6 Xposition Yposition Zposition Zrotation Xrotation Yrotation 
					JOINT Toes_R
					{
						OFFSET -11.7543 0.0 0.0
						CHANNELS 6 Xposition Yposition Zposition Zrotation Xrotation Yrotation 
						End Site
						{
							OFFSET 0.0 0.0 0.0
						}
					}
				}
			}
		}
	}
}
MOTION
Frames:	5
Frame Time:	0.0333333
0.000000 0.000000 0.000000 0.000000 0.000000 -0.000000 188.217000 95.028800 -160.435000 91.135400 1.588580 -5.230640 15.735700 0.000005 -0.000001 141.752000 86.873800 -141.548000 8.984550 -0.406207 -0.000000 -3.911250 4.886260 0.576020 16.377300 -0.000001 -0.000001 -3.823560 1.001440 -2.602280 6.456720 -0.000001 -0.000000 0.050648 -2.767330 -3.144510 12.994200 -0.242716 4.980390 -92.370800 6.012670 -68.433500 5.348090 -0.000007 -0.000001 -53.778800 -20.181000 15.894100 24.328600 0.000019 0.000005 3.907290 20.714700 -10.930700 22.291600 -0.000001 0.000005 -2.912330 5.019570 6.892380 12.994500 -0.242716 -4.980390 89.299900 2.503950 -74.374600 -5.348130 -0.000001 -0.000004 -64.406100 19.717900 -22.731300 -24.328900 0.000322 -0.000009 -0.142163 -0.134371 -46.070500 -22.291500 -0.000108 -0.000004 7.786990 5.331510 -0.830717 -2.192480 -6.469440 -0.000000 -177.824000 1.250910 -25.066700 39.081100 -0.000007 -0.000012 0.070843 -0.095258 36.637600 40.985400 -0.000006 -0.000013 -7.045850 6.621070 -56.432600 11.754300 -0.000000 0.000003 0.001457 0.029844 -15.366100 -2.192510 6.469440 -0.000001 -179.644000 11.992800 179.974000 -39.081100 -0.002282 -0.040193 0.006808 -0.013844 14.096500 -40.985400 0.000008 0.000006 -4.781610 1.822680 -63.517700 -11.754300 -0.000006 -0.000006 0.002258 0.109368 -12.138100
0.000000 0.000000 0.000000 0.000000 0.000000 -0.000000 188.515000 95.129500 -157.789000 91.045400 0.898103 -6.089420 15.735700 0.000005 -0.000001 146.704000 86.772300 -146.489000 8.984550 -0.406207 -0.000000 -4.241890 5.369160 0.629968 16.377300 -0.000001 -0.000001 -4.126970 1.325780 -3.047630 6.456720 -0.000001 -0.000000 0.242903 -2.793090 -3.096330 12.994200 -0.242716 4.980390 -92.178200 5.476110 -68.269800 5.348090 -0.000007 -0.000001 -50.527200 -22.636100 18.064700 24.328600 0.000019 0.000005 3.481460 16.997900 -11.756400 22.291600 -0.000001 0.000005 1.463960 4.977770 7.776160 12.994500 -0.242716 -4.980390 89.481600 1.900760 -74.743300 -5.348130 -0.000001 -0.000004 -62.633500 19.481800 -26.193600 -24.328900 0.000322 -0.000009 -1.194260 -0.926720 -52.152300 -22.291500 -0.000108 -0.000004 7.563980 5.354110 -1.500960 -2.192480 -6.469440 -0.000000 -177.617000 1.103590 -24.371400 39.081100 -0.000007 -0.000012 0.041288 -0.104712 21.519700 40.985400 -0.000006 -0.000013 -6.332910 7.719950 -56.426700 11.754300 -0.000000 0.000003 0.001525 0.031676 -15.291800 -2.192510 6.469440 -0.000001 179.667000 14.390800 -177.644000 -39.081100 -0.002282 -0.040193 0.006624 -0.017014 10.933700 -40.985400 0.000008 0.000006 -4.395700 4.569920 -61.447100 -11.754300 -0.000006 -0.000006 0.002488 0.083451 -13.188800
0.000000 0.000000 0.000000 0.000000 0.000000 -0.000000 188.810000 94.416500 -154.879000 90.362400 -0.204878 -6.433550 15.735700 0.000005 -0.000001 149.686000 86.556400 -149.211000 8.984550 -0.406207 -0.000000 -4.325980 5.890840 1.174340 16.377300 -0.000001 -0.000001 -4.417020 1.699680 -3.289830 6.456720 -0.000001 -0.000000 0.531023 -2.494410 -3.439670 12.994200 -0.242716 4.980390 -92.003800 5.047940 -68.316100 5.348090 -0.000007 -0.000001 -47.701100 -24.856800 19.952900 24.328600 0.000019 0.000005 3.140050 15.108800 -11.884900 22.291600 -0.000001 0.000005 7.040230 4.921490 8.930700 12.994500 -0.242716 -4.980390 89.647300 1.335190 -75.201300 -5.348130 -0.000001 -0.000004 -61.050500 18.959900 -29.538600 -24.328900 0.000322 -0.000009 -1.678710 -1.075570 -57.337500 -22.291500 -0.000108 -0.000004 7.714340 5.367730 -1.916530 -2.192480 -6.469440 -0.000000 -177.154000 -0.891620 -23.270400 39.081100 -0.000007 -0.000012 0.013433 -0.103349 7.406230 40.985400 -0.000006 -0.000013 -7.195790 10.069600 -56.619400 11.754300 -0.000000 0.000003 0.001737 0.037780 -15.044200 -2.192510 6.469440 -0.000001 179.453000 14.014300 -175.966000 -39.081100 -0.002282 -0.040193 0.001086 0.011742 10.853000 -40.985400 0.000008 0.000006 -5.045730 5.637000 -62.105300 -11.754300 -0.000006 -0.000006 0.002270 0.058978 -14.181000
0.000000 0.000000 0.000000 0.000000 0.000000 -0.000000 189.124000 93.214000 -151.776000 89.739600 -1.203900 -6.594130 15.735700 0.000005 -0.000001 149.476000 86.394700 -148.741000 8.984550 -0.406207 -0.000000 -4.154850 6.130510 1.693050 16.377300 -0.000001 -0.000001 -4.692480 2.194210 -3.546300 6.456720 -0.000001 -0.000000 0.390449 -1.998840 -3.704000 12.994200 -0.242716 4.980390 -92.108300 5.343120 -68.429700 5.348090 -0.000007 -0.000001 -44.934100 -26.614300 20.984700 24.328600 0.000019 0.000005 2.532020 13.314000 -10.868100 22.291600 -0.000001 0.000005 12.570100 4.854950 10.245300 12.994500 -0.242716 -4.980390 89.632600 1.420160 -75.492300 -5.348130 -0.000001 -0.000004 -59.332100 18.343800 -32.943400 -24.328900 0.000322 -0.000009 -1.906590 -1.039660 -61.389500 -22.291500 -0.000108 -0.000004 7.739090 5.383550 -2.409320 -2.192480 -6.469440 -0.000000 -176.741000 -2.259100 -25.960600 39.081100 -0.000007 -0.000012 -0.002670 0.052884 2.889420 40.985400 -0.000006 -0.000013 -6.769470 11.817300 -61.403400 11.754300 -0.000000 0.000003 0.001710 0.036951 -15.077900 -2.192510 6.469440 -0.000001 179.122000 13.022000 -174.930000 -39.081100 -0.002282 -0.040193 -0.011648 0.064859 13.006600 -40.985400 0.000008 0.000006 -5.699080 6.285180 -64.658600 -11.754300 -0.000006 -0.000006 0.001717 0.037150 -15.066200
0.000000 0.000000 0.000000 0.000000 0.000000 -0.000000 189.544000 91.801100 -148.354000 89.309800 -1.794240 -6.685400 15.735700 0.000005 -0.000001 147.165000 86.410900 -146.217000 8.984550 -0.406207 -0.000000 -3.932910 5.930770 2.102760 16.377300 -0.000001 -0.000001 -4.841540 2.608580 -3.725170 6.456720 -0.000001 -0.000000 -0.152274 -1.324080 -3.870180 12.994200 -0.242716 4.980390 -92.571300 6.557940 -68.534800 5.348090 -0.000007 -0.000001 -42.155900 -27.791700 21.165000 24.328600 0.000019 0.000005 1.800450 11.538500 -8.928320 22.291600 -0.000001 0.000005 16.861000 4.775440 11.763800 12.994500 -0.242716 -4.980390 89.489800 1.988710 -75.608800 -5.348130 -0.000001 -0.000004 -58.143400 17.886300 -35.516300 -24.328900 0.000322 -0.000009 -1.771400 -0.850798 -64.334400 -22.291500 -0.000108 -0.000004 8.159680 5.394320 -2.752740 -2.192480 -6.469440 -0.000000 -175.715000 -1.078270 -27.604100 39.081100 -0.000007 -0.000012 -0.000001 0.101867 0.000005 40.985400 -0.000006 -0.000013 -6.579700 8.543800 -64.568000 11.754300 -0.000000 0.000003 0.001863 0.041796 -14.881300 -2.192510 6.469440 -0.000001 178.684000 11.749600 -173.877000 -39.081100 -0.002282 -0.040193 -0.028229 0.112174 15.713000 -40.985400 0.000008 0.000006 -6.247510 6.277090 -67.517800 -11.754300 -0.000006 -0.000006 0.000224 0.003851 -16.417500
